# Blender v2.67 (sub 0) OBJ File: ''
# www.blender.org
mtllib shuntern.mtl
o Cube
v 0.798769 -2.012775 3.061491
v 0.487186 -2.012775 3.061491
v 0.487186 -1.701192 3.061491
v 0.798769 -1.701192 3.061491
v 0.798769 -2.012775 3.638356
v 0.487186 -2.012775 3.638356
v 0.487186 -1.701192 3.638356
v 0.798769 -1.701192 3.638356
v -0.666667 -2.504986 1.000000
v -0.666667 0.666666 1.000000
v 1.333333 0.666666 1.000000
v 1.333332 -2.504987 1.000000
v -0.666668 -2.504986 2.900000
v -0.666666 0.666667 2.900000
v 1.333334 0.666666 2.900000
v 1.333333 -2.504987 2.900000
v -0.466668 -2.333333 3.100000
v -0.466666 0.666667 3.100000
v 1.133334 0.666666 3.100000
v 1.133333 -2.333334 3.100000
v -0.666666 2.366666 1.000000
v 1.333334 2.366666 1.000000
v 1.833332 -3.004987 1.000000
v -1.066667 -3.004986 1.000000
v -1.166667 0.666667 1.000000
v 1.833333 0.666666 1.000000
v -1.166666 0.666667 3.600000
v 1.833333 0.666666 3.600000
v -0.698666 0.652584 3.800000
v 1.365333 0.652583 3.800000
v -1.166666 2.366667 1.000000
v 1.833334 2.366666 1.000000
v -1.166665 2.366667 3.600000
v 1.833334 2.366666 3.600000
v -0.698665 2.280653 3.800000
v 1.365334 2.280652 3.800000
v 1.833332 -3.004987 0.500000
v -1.066667 -3.004986 0.500000
v -1.166667 0.666667 0.500000
v 1.833333 0.666666 0.500000
v -1.166666 2.366667 0.500000
v 1.833334 2.366666 0.500000
v -0.993377 1.279315 -0.085196
v -0.993377 0.909826 0.053389
v -0.993377 1.648804 0.053389
v -0.993377 1.807157 0.376755
v -0.993377 1.279315 0.838707
v -0.993377 0.751474 0.838707
v -0.993377 1.807157 0.838707
v -0.993377 0.751474 0.376755
v 1.724627 1.279315 -0.085196
v 1.724627 0.909826 0.053389
v 1.724627 1.648804 0.053389
v 1.724627 1.807156 0.376755
v 1.724627 1.279315 0.838707
v 1.724627 0.751473 0.838707
v 1.724627 1.807156 0.838707
v 1.724627 0.751473 0.376755
v -0.993378 -1.637806 -0.085196
v -0.993378 -2.007294 0.053389
v -0.993378 -1.268317 0.053389
v -0.993378 -1.109964 0.376755
v -0.993378 -1.637806 0.838707
v -0.993378 -2.165647 0.838707
v -0.993378 -1.109964 0.838707
v -0.993378 -2.165647 0.376755
v 1.724626 -1.637806 -0.085196
v 1.724626 -2.007295 0.053389
v 1.724626 -1.268317 0.053389
v 1.724626 -1.109965 0.376755
v 1.724626 -1.637806 0.838707
v 1.724626 -2.165647 0.838707
v 1.724626 -1.109965 0.838707
v 1.724626 -2.165647 0.376755
v 1.862136 0.935976 1.915069
v -1.176191 0.935977 1.915069
v -1.176191 1.819840 1.915069
v 1.862136 1.819839 1.915069
v 1.862136 0.935976 3.389044
v -1.176191 0.935977 3.389044
v -1.176191 1.819840 3.389044
v 1.862136 1.819839 3.389044
vn -0.000001 -1.000000 0.000000
vn -1.000000 0.000000 0.000000
vn 0.000000 1.000000 -0.000000
vn 1.000000 -0.000000 0.000000
vn 0.000000 -0.000000 1.000000
vn -0.000000 -1.000000 0.000000
vn 0.707107 -0.000000 0.707107
vn -0.707107 0.000000 0.707107
vn -0.000000 -0.758837 0.651281
vn 0.000000 0.918647 0.395080
vn -1.000000 0.000001 0.000000
vn 0.392971 -0.000000 0.919551
vn 1.000000 -0.000001 -0.000000
vn -0.392971 0.000000 0.919551
vn -0.000001 -0.999798 -0.020115
vn 0.002458 -0.999991 -0.003442
vn -0.002459 -0.999991 -0.003442
vn -0.999629 -0.027225 0.000000
usemtl black
s off
f 5//1 6//1 2//1 1//1
f 6//2 7//2 3//2 2//2
f 7//3 8//3 4//3 3//3
f 8//4 5//4 1//4 4//4
f 8//5 7//5 6//5 5//5
f 62//2 61//2 59//2 60//2 66//2 64//2 63//2 65//2
f 70//4 73//4 71//4 72//4 74//4 68//4 67//4 69//4
f 54//4 57//4 55//4 56//4 58//4 52//4 51//4 53//4
f 46//2 45//2 43//2 44//2 50//2 48//2 47//2 49//2
usemtl body
f 23//6 24//6 38//6 37//6
f 9//2 13//2 14//2 10//2
f 11//4 15//4 16//4 12//4
f 13//6 9//6 12//6 16//6
f 17//5 20//5 19//5 18//5
f 16//7 15//7 19//7 20//7
f 14//8 13//8 17//8 18//8
f 13//9 16//9 20//9 17//9
f 33//10 35//10 36//10 34//10
f 29//5 30//5 36//5 35//5
f 25//11 27//11 33//11 31//11
f 30//12 28//12 34//12 36//12
f 28//13 26//13 32//13 34//13
f 27//14 29//14 35//14 33//14
f 18//15 19//15 30//15 29//15
f 24//5 9//5 10//5 25//5
f 15//16 11//16 26//16 28//16 30//16 19//16
f 14//17 18//17 29//17 27//17 25//17 10//17
f 11//5 12//5 23//5 26//5
f 9//5 24//5 23//5 12//5
f 32//13 26//13 40//13 42//13
f 25//11 31//11 41//11 39//11
f 26//4 23//4 37//4 40//4
f 24//18 25//18 39//18 38//18
f 42//3 41//3 31//3 32//3
f 32//3 31//3 33//3 34//3
usemtl glass
f 80//2 81//2 77//2 76//2
f 82//4 79//4 75//4 78//4
